<?xml version="1.0" encoding="UTF-8"?>
<svg id="Layer_1" data-name="Layer 1" xmlns="http://www.w3.org/2000/svg" viewBox="0 0 1024 1024">
  <defs>
    <style>
      .cls-1 {
        fill: #6da9e4;
      }

      .cls-2 {
        fill: #fff;
      }

      .cls-3 {
        fill: #f6ba6f;
      }

      .cls-4 {
        fill: #be1e2d;
      }

      .cls-5 {
        fill: #ade4db;
      }

      .cls-6 {
        fill: #ffebeb;
      }

      .cls-7 {
        fill: #ffde17;
      }

      .cls-8 {
        fill: #1c75bc;
      }
    </style>
  </defs>
  <path class="cls-8" d="m159.68,879.99c0-3.06-.22-6.13.04-9.17.71-8.29,6.2-14.05,13.64-14.61,8.26-.63,15.81,5.02,17.47,13.13.47,2.3,1.08,4.63,1.11,6.95.07,4.82,2.72,7.13,7,8.44,4.02,1.23,8.12,2.41,11.88,4.25,6.19,3.03,8.83,8.49,7.8,15.17-1.03,6.68-5.79,10.03-12.23,10.75-5.6.63-11.28,1.36-16.86,1.04-19.34-1.12-29.82-13.92-29.84-35.95Z"/>
  <path class="cls-8" d="m159.85,143.33c-2.46-27.43,19.84-41.21,47.19-35.78,6.54,1.3,11.27,5.18,11.41,12.43.13,6.83-3.28,11.59-9.84,13.9-2,.7-3.95,1.59-6,2.05-7.22,1.62-10.6,5.8-10.75,13.42-.18,9.08-4.63,14.85-11.97,17.21-9.91,3.18-18.81-2.36-19.97-12.66-.39-3.48-.06-7.05-.06-10.58Z"/>
  <path class="cls-8" d="m864.54,144.89c0,1.61.06,3.96-.01,6.31-.26,8.89-5.02,14.92-12.65,16.11-8.19,1.27-17.39-3.47-18.09-11.91-1.06-12.85-6.71-19.15-19.09-21.79-6.76-1.44-8.63-8.08-8.22-14.73.42-6.78,5.07-9.93,10.9-11.2,26.56-5.81,50.22,8.54,47.15,37.22Z"/>
  <path class="cls-8" d="m864.46,877.99c3.06,30.17-21.45,43.07-47.6,36.66-5.65-1.38-9.34-5.28-10.23-11.31-.93-6.3,1.51-10.98,6.91-14.22.4-.24.8-.59,1.24-.66,12.09-2.13,18.65-8.53,19.31-21.56.31-6.12,9.97-11.22,16.48-10.64,7.99.71,12.96,5.35,13.83,13.36.36,3.25.06,6.57.06,8.37Z"/>
  <path class="cls-8" d="m3.99,509.73c-.07-10.86,8.21-19.05,19.21-19.03,11.21.02,20.12,8.41,20.34,19.15.22,10.98-8.4,19.78-19.47,19.84-11.45.07-20.01-8.44-20.08-19.96Z"/>
  <path class="cls-8" d="m999.43,529.53c-10.9.05-18.88-8.07-18.87-19.19.02-11.31,8.51-19.49,20.3-19.54,10.59-.04,18.97,8.35,19.15,19.16.17,10.61-9.2,19.52-20.58,19.57Z"/>
  <path class="cls-6" d="m241.48,501.26c3.95-99.78,47.56-174.29,129.72-225.69,48.47-30.32,102.33-43.39,159.32-38.63,90.41,7.55,161.18,49.96,211.05,125.74,31.62,48.05,44.01,101.71,39.41,158.83-4.69,58.19-27.14,109.22-66.3,152.61-46.21,51.2-103.71,81.53-172.22,89.13-147.93,16.41-271.71-84.21-296.28-217.29-2.85-15.43-3.36-31.3-4.72-44.69Zm335.96-14.81c-.24,39.84,31.4,71.98,71.19,72.32,39.48.33,72.71-31.89,73.07-70.86.37-39.87-31.87-72.96-71.36-73.24-41.06-.29-72.65,30.81-72.9,71.78Zm-275.58.61c-.04,38.81,32.19,71.57,70.56,71.73,40.02.17,73.71-32.39,73.71-71.22,0-40.32-31.89-72.79-71.63-72.91-40.63-.12-72.61,31.74-72.65,72.4Zm209.01,170.8c2.35,0,4.71.12,7.06-.02,26.18-1.56,51.85-20.15,60.19-43.57,4.67-13.11.27-25.1-10.66-29.03-10.39-3.74-19.95,1.68-24.85,14.43-5.3,13.79-16.35,19.25-29.88,19.44-13.18.19-24.33-4.94-30.82-17.41-1.62-3.12-2.69-6.61-4.69-9.44-4.46-6.3-10.9-9.1-18.46-7.69-7.21,1.34-13.2,5.55-13.88,13.12-.6,6.75-.45,14.32,2.03,20.45,9.56,23.66,37.02,40.29,63.96,39.72Z"/>
  <path class="cls-1" d="m954.39,437.33c-17.09-110.28-72.07-200.42-159.2-269.69-102.19-81.27-219.33-111.81-348.32-94.3-90.51,12.26-170.11,49.57-237.97,111.32-94.47,85.97-141.4,193.42-146.12,323.16.62,12.49.98,27.78,2.28,43.02.98,11.69,2.57,23.43,4.9,34.93,30.38,149.53,113.92,258.7,250.81,325.82,84.57,41.48,174.29,53.09,266.98,36.7,89.14-15.75,167.79-53.94,233.06-117.2,111.73-108.24,157.41-240.04,133.57-393.76Zm-133.12-150.26c6.83-4.87,16.45-4.28,21.33,3.06,10.13,15.24,20.73,30.5,28.37,47.02,9.9,21.5,17.14,44.25,25.42,66.5.89,2.38,1.08,5.04,1.34,6.36.04,8.05-4.38,13.69-11.28,15.67-6.83,1.94-14.26-.75-17.71-6.85-1.47-2.62-2.41-5.62-3.15-8.54-8.83-34.82-23.92-66.77-43.64-96.66-1.41-2.15-2.81-4.34-4.06-6.6-4.47-8.24-3.26-15.2,3.38-19.95Zm-40.29,234.44c-4.68,58.2-27.14,109.22-66.3,152.6-46.21,51.21-103.7,81.54-172.22,89.14-147.93,16.41-271.69-84.21-296.27-217.3-2.85-15.43-3.36-31.31-4.72-44.68,3.94-99.79,47.57-174.29,129.73-225.69,48.47-30.33,102.32-43.4,159.32-38.63,90.4,7.54,161.17,49.94,211.05,125.73,31.61,48.06,44,101.72,39.4,158.83Zm-90.46-291.57c.06-11.75,21.11-42.51,32.06-46.98,8.54-3.49,16.41-1.43,23.29,3.73,14.86,11.17,29.72,22.39,43.98,34.31,12,10.02,9.62,25.12-4.55,32.21-4.6,2.32-9.51,4.15-14.45,5.58-3.83,1.11-5.41,3.09-5.38,6.98.04,2.81-.36,5.64-.72,8.45-1.53,11.84-10.81,17.2-20.69,10.68-6.43-4.22-11.84-10.62-16.28-17.03-3.15-4.53-6.58-7.32-11.41-9.62-6.3-3.02-12.9-6.3-17.8-11.07-4.38-4.28-6.62-10.75-9.79-16.24.57-.34,1.13-.66,1.72-1Zm-81.59-79.54c1.57-6.04,7-9.54,13.47-8.66,4.36.6,8.6,1.9,13.15,2.94,3.98-9.07,2.4-23.67,18.73-19.92,8.92,2.04,9.47,6.92,4.55,27.52,18.67,8.11,22.16,11.75,19.56,20.14-2.49,7.98-7.81,9.09-26.63,5.24-1.11,3.7-2.15,7.51-3.41,11.22-2.43,7.19-7.86,10.69-14.41,9.49-5.85-1.09-11.64-8.13-9.3-14.32,4.09-10.98,1.21-15.77-9.85-18.79-6.41-1.74-7.47-8.6-5.85-14.88Zm-256.47.09c12.66-5.05,25.42-9.9,38.46-13.79,43.61-13,88.29-18.56,133.78-17.47,3.04.08,6.15.21,9.05.98,7.75,2.06,12.3,8.62,11.73,16.28-.58,7.7-6.02,13.11-14.49,13.56-7.26.41-14.58.09-21.88.09-47.4,1.13-93.44,9.11-137.78,26.35-4.98,1.92-10.9,2.92-16.13,2.24-6.3-.83-9.88-6.02-10.66-12.45-.85-6.94,1.17-13.13,7.9-15.81Zm-112.9,65.56c11.56-8.03,22.01-17.62,33.01-26.46,15.45-12.47,28.37-11.22,40.7,4.19,4.98,6.24,9.75,12.71,13.86,19.54,3.07,5.11,4.9,11,7.22,16.35-1.58,4.38-2.41,8.11-4.22,11.28-1.58,2.77-3.85,5.64-6.54,7.22-14.5,8.45-28.14,17.43-37.01,32.69-3.34,5.73-11.15,8.68-18.24,6.17-6.64-2.34-9.28-8.77-9.03-15.45.32-8.75-3.28-13.54-11.84-14.77-.7-.09-1.36-.4-2.02-.62-22.61-8.13-23.95-27.57-5.88-40.14Zm-112.84,192.8c.89-6.7,3.06-13.28,5.15-19.73,10.79-33.31,26.07-64.49,45.42-93.61,2.73-4.13,6.64-8.41,11.01-10.3,6.09-2.66,12.56-1.04,17.14,4.62,4.56,5.64,4.58,11.49.87,17.64-8.49,14.09-18.18,27.67-24.99,42.53-8.69,18.92-15.6,38.72-22.18,58.53-4.36,13.13-7.68,17.67-17.52,17.56-9.6-.11-16.22-7.24-14.9-17.24Zm-11.43,135.35c-.32-1.13-.75-2.28-.75-3.41,0-20.43-.49-40.89.3-61.28.45-11.66,12.54-17.43,22.86-11.94,5.22,2.77,7.88,7.19,7.9,13.15.02,5.17.04,10.34.04,15.5.02,4.92,0,9.86,0,14.79-.02,9.86.13,19.73-.06,29.59-.15,8.56-5.28,13.81-13.88,14.71-8.09.85-14.15-3.24-16.41-11.11Zm90.87,182.27c-2.94,5.45-7.86,7.81-15.07,9.36-4.22-2.89-9.73-4.89-12.47-8.81-23.44-33.61-40.65-70.29-51.51-109.83-3.21-11.69,2.81-20.71,13.35-21.8,8.05-.83,13.41,3.07,16.41,12.32,3.55,10.94,6.45,22.1,10.43,32.89,9.07,24.58,21.03,47.7,36.78,68.75,3.96,5.3,5.38,11.03,2.07,17.13Zm89.04,111.68c-3.81-.77-7.79-2.36-10.9-4.66-17.54-13.01-34.91-26.25-52.19-39.63-5.24-4.07-8.64-9.39-7.19-16.52,2.47-12.11,14.81-17.09,24.97-9.58,15.69,11.58,30.99,23.69,46.45,35.57,3.9,3,8.3,5.53,11.64,9.05,2.75,2.9,4.28,6.94,5.3,8.69.21,11.83-8.36,19.05-18.09,17.07Zm374.97,33.55c-15.75,6.21-31.54,12.43-47.74,17.18-36.29,10.66-73.44,16.18-108.34,15.9-55.7.17-106.24-10.39-154.77-30.76-2.38-1-4.72-2.17-6.87-3.58-7.53-5-9.92-13.45-6.07-20.88,3.7-7.17,11.3-9.69,19.99-6.13,31.91,13.11,64.77,22.82,99,27.63,47.34,6.64,93.95,2.19,139.83-10.26,15.86-4.3,31.25-10.3,46.85-15.54,2.45-.83,4.83-1.92,7.3-2.64,8.92-2.57,16.9,1,19.8,8.75,3.11,8.3-.15,16.84-9,20.33Zm124.56-80.61c-18.99,15.05-38.23,29.8-57.75,44.17-3.09,2.28-8.02,3.15-11.98,2.92-6.87-.4-11.84-4.41-13.81-11.3-2-7.04.79-12.54,6.24-16.73,12.13-9.34,24.44-18.41,36.61-27.69,6.73-5.13,13.22-10.6,20.07-15.58,5.49-4,11.98-4.32,17.22-.41,4.15,3.09,6.85,8.13,10.56,12.75-2.94,5.02-4.21,9.51-7.17,11.86Zm102.62-179.22c-.92,7.83-3.56,15.5-5.98,23.09-10.2,32.01-24.84,61.88-43.47,89.85-3.9,5.85-8.58,9.92-16.09,9.47-12.39-.11-18.96-11.92-12.47-22.99,4.28-7.28,9.45-14.03,13.79-21.28,14.81-24.76,25.59-51.23,32.95-79.1,3.09-11.64,7-15.5,15.26-15.52,9.51-.02,17.13,7.05,16.01,16.48Zm12.26-74.26c-.06,11.79-5.96,18.26-15.99,18.01-9.28-.23-15.54-7.3-15.69-17.99-.11-9.41-.02-18.8-.02-28.2h.64c0-10.11-.26-20.22.09-30.31.28-7.94,5.39-12.62,13.56-13.39,7.2-.68,14.6,4,16.39,10.64.66,2.47.92,5.11.94,7.66.09,17.86.19,35.72.08,53.58Z"/>
  <path class="cls-5" d="m514.11,904.78c-55.71.17-106.24-10.4-154.78-30.76-2.37-1-4.72-2.17-6.86-3.59-7.53-5-9.93-13.46-6.09-20.88,3.71-7.16,11.3-9.69,20-6.12,31.92,13.1,64.76,22.82,98.99,27.63,47.35,6.64,93.95,2.19,139.84-10.26,15.86-4.3,31.26-10.3,46.86-15.54,2.45-.82,4.82-1.92,7.29-2.64,8.91-2.57,16.89,1,19.79,8.75,3.12,8.31-.13,16.85-8.99,20.34-15.73,6.2-31.54,12.43-47.74,17.18-36.28,10.64-73.43,16.18-108.32,15.89Z"/>
  <path class="cls-3" d="m690.52,229.93c.06-11.75,21.1-42.52,32.07-46.99,8.55-3.48,16.4-1.43,23.28,3.74,14.87,11.16,29.72,22.38,43.99,34.3,11.99,10.02,9.61,25.14-4.53,32.23-4.6,2.31-9.51,4.14-14.46,5.58-3.82,1.11-5.41,3.09-5.36,6.98.04,2.81-.36,5.64-.73,8.43-1.53,11.85-10.8,17.21-20.69,10.69-6.42-4.24-11.84-10.62-16.29-17.03-3.15-4.53-6.58-7.32-11.41-9.63-6.3-3.01-12.9-6.29-17.79-11.07-4.38-4.27-6.62-10.74-9.8-16.24.58-.33,1.15-.67,1.73-1Z"/>
  <path class="cls-3" d="m334.35,229.67c-1.57,4.37-2.4,8.1-4.21,11.27-1.58,2.77-3.85,5.65-6.54,7.22-14.52,8.47-28.15,17.43-37.02,32.69-3.34,5.75-11.15,8.68-18.24,6.18-6.64-2.35-9.27-8.77-9.03-15.45.32-8.75-3.28-13.54-11.85-14.76-.69-.1-1.35-.4-2.02-.64-22.61-8.12-23.95-27.58-5.88-40.14,11.55-8.03,22.01-17.62,32.99-26.46,15.46-12.45,28.37-11.22,40.7,4.2,4.98,6.23,9.76,12.7,13.86,19.53,3.08,5.12,4.91,10.99,7.22,16.35Z"/>
  <path class="cls-5" d="m509.12,150.15c-47.4,1.13-93.44,9.11-137.78,26.35-4.96,1.93-10.9,2.92-16.12,2.24-6.3-.82-9.88-6.01-10.67-12.45-.84-6.93,1.18-13.12,7.92-15.81,12.64-5.04,25.41-9.9,38.44-13.78,43.62-13,88.29-18.56,133.78-17.46,3.04.07,6.16.21,9.07.98,7.74,2.05,12.3,8.62,11.72,16.28-.58,7.68-6.02,13.1-14.48,13.56-7.27.4-14.59.08-21.88.08Z"/>
  <path class="cls-5" d="m897.73,410c.04,8.05-4.38,13.69-11.28,15.67-6.82,1.95-14.26-.75-17.71-6.85-1.48-2.61-2.41-5.61-3.16-8.55-8.83-34.8-23.92-66.77-43.63-96.66-1.42-2.16-2.82-4.34-4.05-6.61-4.48-8.23-3.27-15.2,3.37-19.94,6.82-4.87,16.44-4.29,21.32,3.04,10.14,15.25,20.74,30.5,28.36,47.03,9.91,21.51,17.15,44.25,25.43,66.5.89,2.39,1.07,5.04,1.34,6.36Z"/>
  <path class="cls-5" d="m141.61,426.09c-9.6-.12-16.22-7.24-14.9-17.25.89-6.69,3.04-13.26,5.14-19.73,10.79-33.3,26.08-64.47,45.42-93.61,2.74-4.13,6.65-8.4,11.02-10.3,6.09-2.65,12.56-1.04,17.15,4.62,4.57,5.64,4.59,11.5.88,17.65-8.5,14.09-18.18,27.65-25,42.52-8.68,18.92-15.6,38.73-22.16,58.53-4.36,13.13-7.68,17.68-17.53,17.56Z"/>
  <path class="cls-5" d="m831.82,734.28c-12.41-.11-18.97-11.93-12.47-22.99,4.28-7.28,9.45-14.04,13.78-21.29,14.8-24.76,25.59-51.21,32.96-79.09,3.08-11.65,6.98-15.51,15.24-15.53,9.51-.02,17.14,7.06,16.02,16.49-.93,7.82-3.57,15.51-5.99,23.08-10.2,32.01-24.84,61.89-43.47,89.85-3.9,5.85-8.59,9.93-16.08,9.48Z"/>
  <path class="cls-5" d="m191.09,735.82c-4.23-2.89-9.74-4.88-12.48-8.81-23.44-33.62-40.64-70.3-51.5-109.83-3.21-11.69,2.81-20.71,13.35-21.8,8.05-.84,13.42,3.07,16.42,12.31,3.55,10.94,6.45,22.11,10.43,32.89,9.07,24.59,21.03,47.71,36.78,68.76,3.96,5.29,5.37,11.02,2.07,17.12-2.96,5.46-7.86,7.82-15.07,9.37Z"/>
  <path class="cls-5" d="m801.9,779.22c-2.94,5.01-4.21,9.51-7.17,11.86-18.99,15.05-38.23,29.8-57.74,44.17-3.09,2.28-8.02,3.14-11.99,2.92-6.85-.39-11.83-4.41-13.79-11.3-2-7.03.79-12.54,6.23-16.73,12.13-9.33,24.44-18.41,36.61-27.67,6.74-5.13,13.22-10.61,20.07-15.59,5.48-3.99,11.97-4.32,17.21-.41,4.15,3.09,6.85,8.12,10.57,12.75Z"/>
  <path class="cls-5" d="m313.28,821.07c.22,11.82-8.36,19.04-18.08,17.06-3.81-.77-7.8-2.36-10.9-4.65-17.54-13.01-34.91-26.26-52.18-39.63-5.25-4.06-8.64-9.39-7.19-16.52,2.47-12.1,14.81-17.08,24.98-9.58,15.69,11.58,30.98,23.69,46.45,35.57,3.91,3,8.3,5.53,11.64,9.06,2.74,2.89,4.27,6.94,5.29,8.69Z"/>
  <path class="cls-7" d="m658.81,152.29c18.67,8.1,22.17,11.75,19.57,20.13-2.48,7.99-7.81,9.09-26.64,5.25-1.12,3.7-2.15,7.5-3.41,11.22-2.44,7.19-7.87,10.7-14.42,9.49-5.84-1.08-11.62-8.13-9.3-14.32,4.11-10.96,1.22-15.77-9.84-18.78-6.41-1.74-7.46-8.61-5.84-14.88,1.56-6.04,7-9.55,13.47-8.66,4.35.6,8.6,1.9,13.14,2.95,3.97-9.07,2.39-23.67,18.72-19.92,8.92,2.04,9.47,6.93,4.54,27.53Z"/>
  <path class="cls-5" d="m878.56,509.43c0-10.1-.27-20.21.09-30.3.28-7.94,5.4-12.61,13.56-13.39,7.21-.68,14.6,3.99,16.39,10.63.66,2.46.93,5.1.94,7.67.1,17.86.18,35.72.08,53.58-.07,11.78-5.97,18.25-15.99,18.01-9.28-.22-15.55-7.31-15.69-18-.12-9.4-.03-18.8-.03-28.2.22,0,.43,0,.65,0Z"/>
  <path class="cls-5" d="m145.62,511.01c0,9.86.14,19.73-.04,29.59-.16,8.56-5.29,13.81-13.88,14.71-8.09.85-14.14-3.25-16.4-11.12-.32-1.12-.76-2.28-.76-3.41,0-20.43-.48-40.88.31-61.28.45-11.66,12.55-17.42,22.86-11.93,5.22,2.78,7.89,7.19,7.9,13.15.01,5.17.03,10.33.04,15.5,0,4.93,0,9.86-.02,14.8Z"/>
  <path d="m301.86,487.06c.04-40.66,32.01-72.53,72.65-72.4,39.74.12,71.64,32.59,71.63,72.91,0,38.84-33.7,71.39-73.71,71.22-38.37-.16-70.6-32.92-70.56-71.73Z"/>
  <path class="cls-4" d="m510.86,657.86c-26.94.57-54.4-16.06-63.96-39.72-2.48-6.13-2.64-13.7-2.03-20.45.68-7.57,6.67-11.78,13.88-13.12,7.57-1.41,14.01,1.39,18.46,7.69,2.01,2.83,3.07,6.32,4.69,9.44,6.48,12.47,17.64,17.6,30.82,17.41,13.53-.19,24.58-5.65,29.88-19.44,4.9-12.75,14.47-18.16,24.85-14.43,10.93,3.93,15.33,15.92,10.66,29.03-8.34,23.42-34.01,42.01-60.19,43.57-2.34.14-4.7.02-7.06.02Z"/>
  <path class="cls-2" d="m355.2,501.58c.02-20.28,15.97-36.17,36.23-36.11,19.82.06,35.73,16.25,35.73,36.36,0,19.37-16.81,35.61-36.77,35.52-19.14-.08-35.21-16.42-35.19-35.77Z"/>
  <path d="m721.71,487.06c-.04-40.66-32.01-72.53-72.65-72.4-39.74.12-71.64,32.59-71.63,72.91,0,38.84,33.7,71.39,73.71,71.22,38.37-.16,70.6-32.92,70.56-71.73Z"/>
  <path class="cls-2" d="m668.37,501.58c-.02-20.28-15.97-36.17-36.23-36.11-19.82.06-35.73,16.25-35.73,36.36,0,19.37,16.81,35.61,36.77,35.52,19.14-.08,35.21-16.42,35.19-35.77Z"/>
</svg>